<svg xmlns="http://www.w3.org/2000/svg" viewBox="0 0 2800 750" role="img" aria-label="Glanz Design">
<title>Glanz Design</title>
<defs>
<linearGradient id="gd-blue-wm" x1="0" y1="373" x2="828" y2="373" gradientUnits="userSpaceOnUse">
<stop offset="0" stop-color="#0052CC"/>
<stop offset="1" stop-color="#2D7FF9"/>
</linearGradient>
</defs>
<path d="M 224.500 196.582 C 204.236 199.350, 200.891 200.090, 184.626 205.414 C 96.883 234.136, 39.753 302.218, 25.957 394.500 C 19.954 434.649, 28.387 484.519, 47.939 524.500 C 79.332 588.692, 136.657 630.786, 211.317 644.468 C 226.867 647.318, 266.390 648.123, 282.500 645.918 C 315.697 641.375, 342.480 633.795, 346.358 627.844 C 348.433 624.661, 349.720 480.692, 347.724 475.026 C 345.623 469.063, 344.853 468.944, 310.329 469.236 L 279.158 469.500 276.579 471.924 C 273.257 475.047, 272.889 483.404, 275.909 487.139 C 277.780 489.453, 278.237 489.510, 298.837 490 C 318.186 490.460, 320.080 490.667, 322.678 492.599 C 333.458 500.616, 316.777 510.703, 283 516.593 C 207.399 529.774, 153 490.776, 153 423.398 C 153 346.010, 237.071 298.078, 301.672 338.636 C 312.437 345.395, 315.200 346.100, 318.555 342.949 C 321.434 340.244, 323.330 334.164, 322.423 330.548 C 320.251 321.894, 293.727 309.257, 268.568 304.891 C 212.650 295.186, 153.515 332.392, 138.435 386.767 C 131.742 410.900, 130.824 422.354, 134.057 441.389 C 140.871 481.504, 156.789 505.397, 188.889 523.690 C 220.171 541.517, 265.725 544.447, 310.384 531.506 C 320.707 528.514, 322.185 528.442, 324.345 530.829 C 329.508 536.534, 324.032 541.674, 307.139 546.978 C 274.006 557.382, 230.852 557.983, 205.298 548.396 C 183.986 540.402, 179.036 537.639, 162.658 524.600 C 118.125 489.147, 103.998 419.746, 130.013 364.232 C 142.546 337.486, 167.714 313.029, 197.059 299.078 C 213.547 291.240, 227.388 288.500, 250.500 288.500 C 277.230 288.500, 287.163 291.009, 314.631 304.700 C 325.989 310.361, 328.142 311.119, 330.571 310.310 C 334.332 309.056, 337.026 305.227, 337.704 300.168 C 338.461 294.528, 334.291 290.756, 319.175 283.406 C 257.995 253.656, 187.268 265.910, 140.203 314.414 C 107.513 348.104, 90.903 397.412, 97.562 441 C 108.380 511.827, 146.991 554.517, 215.838 571.772 L 230.500 575.447 254 575.308 C 278.570 575.163, 284.377 574.470, 307.500 568.917 C 322.005 565.433, 322.403 565.425, 324.872 568.565 C 329.423 574.350, 325.083 578.636, 309.766 583.486 C 287.487 590.541, 243.959 593.214, 220.664 588.958 C 165.126 578.810, 122.262 547.504, 98.183 499.500 C 83.226 469.684, 77.047 425.381, 83.384 393.396 C 97.845 320.406, 146.969 270.142, 218.060 255.594 C 257.519 247.519, 292.233 252.624, 330.936 272.195 C 348.833 281.245, 349.539 281.359, 354.384 275.997 C 361.571 268.041, 358.867 263.582, 340.934 253.819 C 324.592 244.923, 300.725 236.470, 286.322 234.477 C 283.670 234.110, 277.729 233.178, 273.119 232.405 C 260.089 230.221, 241.644 230.621, 222.351 233.508 C 170.567 241.255, 122.105 271.868, 93.173 315.110 C 68.281 352.314, 56.088 401.184, 61.515 442 C 68.996 498.258, 89.828 537.270, 129.461 569.240 C 156.334 590.917, 180.277 601.582, 219.436 609.315 C 229.134 611.230, 233.401 611.477, 254 611.317 C 278.030 611.131, 280.397 610.872, 308.500 605.371 C 320.032 603.113, 323.903 603.147, 325.640 605.522 C 332.098 614.354, 316.316 620.895, 277.500 625.473 C 211.831 633.217, 150.533 613.361, 106.663 570.134 C 81.109 544.954, 65.471 519.710, 55.081 486.866 C 47.700 463.534, 45.799 450.466, 45.720 422.500 C 45.609 383.324, 53.858 351.566, 72.469 319.517 C 103.349 266.339, 151.817 232.077, 214 219.470 C 231.411 215.940, 267.791 215.279, 281.500 218.243 C 285.900 219.195, 293.325 220.682, 298 221.548 C 313.637 224.444, 340.561 235.560, 359.182 246.808 C 371.181 254.056, 378.180 253.599, 381.630 245.343 C 384.552 238.349, 377.920 232.288, 354 220.098 C 313.598 199.507, 266.161 190.893, 224.500 196.582 M 530 196.022 C 526.975 196.440, 520.450 197.298, 515.500 197.929 C 452.572 205.948, 391.004 245.664, 356.494 300.500 C 347.784 314.340, 338 334.728, 338 339.038 C 338 344.942, 342.799 347.705, 349.774 345.817 C 355.475 344.274, 357.540 341.687, 365.057 326.677 C 392.932 271.015, 443.827 233.296, 510.500 218.889 C 526.334 215.467, 564.178 214.975, 581.065 217.971 C 653.811 230.878, 713.049 278.702, 741.538 347.523 C 757.992 387.271, 758.910 443.582, 743.828 487.943 C 722.356 551.100, 670.244 600.274, 604 619.889 C 569.387 630.139, 526.015 629.847, 488.500 619.113 C 475.066 615.269, 471.377 617.027, 472.343 626.812 C 472.953 632.991, 475.886 635.602, 485.452 638.481 C 530.103 651.920, 574.604 650.570, 621.287 634.361 C 706.298 604.844, 765.111 524.962, 770.860 431.205 C 772.475 404.873, 767.146 370.604, 757.679 346.438 C 729.664 274.927, 684.605 230.540, 616.500 207.363 C 587.854 197.615, 552.254 192.947, 530 196.022 M 603.500 212.513 C 599.100 215.460, 594.600 217.952, 593.500 218.051 L 591.500 218.232 593.500 218.716 C 602.626 220.926, 626.983 229.963, 638 235.228 C 697.273 263.549, 741.963 321.601, 753.509 385.273 C 754.230 389.248, 754.860 391.734, 754.910 390.798 C 755.016 388.790, 763.567 382.615, 765.008 383.505 C 766.319 384.315, 766.326 384.388, 763.878 371.595 C 759.958 351.103, 744.058 314.979, 729.111 292.603 C 703.767 254.662, 665.336 225.519, 620.062 209.909 C 615.422 208.309, 611.597 207.035, 611.562 207.077 C 611.528 207.120, 607.900 209.566, 603.500 212.513 M 529.500 232.550 C 524.550 233.350, 517.240 234.483, 513.256 235.067 C 484.880 239.225, 452.664 253.830, 427.985 273.726 C 405.322 291.997, 377 328.848, 377 340.067 C 377 349.056, 393.135 347.908, 398.759 338.518 C 403.282 330.965, 414.410 315.397, 420.647 307.894 C 441.155 283.225, 479.613 261.590, 516.413 254.018 C 530.550 251.109, 561.779 251.135, 578.035 254.069 C 656.983 268.318, 716.944 338.016, 717.923 416.672 C 718.890 494.373, 672.846 559.642, 600.500 583.121 C 580.680 589.553, 570.971 591, 547.618 591 C 523.925 591, 512.020 589.107, 491.108 582.012 C 477.401 577.362, 474.918 577.461, 472.907 582.738 C 471.409 586.665, 472.675 593.477, 475.387 596.088 C 482.172 602.617, 517.118 610.742, 542.500 611.691 C 590.961 613.502, 641.430 593.581, 678.335 558.076 C 690.338 546.528, 708.493 521.828, 716.260 506.479 C 720.223 498.650, 730.777 466.869, 732.449 457.732 C 734.643 445.744, 735.894 419.350, 734.877 406.500 C 728.204 322.157, 667.224 252.602, 585.500 236.118 C 562.156 231.409, 543.784 230.239, 529.500 232.550 M 566 235.712 C 566 236.246, 561.692 239.455, 556.427 242.842 C 546.944 248.942, 546.781 249.001, 539.177 249.152 C 534.955 249.235, 539.785 249.667, 549.911 250.110 C 580.019 251.430, 598.153 255.909, 624.500 268.533 C 679.590 294.932, 718.432 355.726, 719.198 416.754 C 719.391 432.148, 719.408 432.260, 719.948 421.775 L 720.500 411.050 725.985 407.596 C 729.862 405.154, 731.689 404.487, 732.220 405.321 C 734.924 409.574, 731.771 386.841, 727.404 370.603 C 709.823 305.235, 656.877 254.145, 590.500 238.500 C 578.776 235.737, 566 234.283, 566 235.712 M 527 269.077 C 502.407 272.801, 480.809 281.030, 460.500 294.413 C 450.513 300.994, 426.715 324.022, 421.220 332.421 C 415.018 341.901, 417.928 346.838, 429.086 345.766 C 435.263 345.172, 437.601 343.510, 446.207 333.591 C 454.339 324.220, 463.084 316.892, 476.952 307.826 C 511.075 285.521, 557.529 280.969, 595.736 296.187 C 611.456 302.449, 630.851 315.510, 643.558 328.394 C 676.185 361.471, 689.111 408.885, 678.016 454.787 C 666.568 502.146, 622.048 544.136, 573.973 552.917 C 543.699 558.447, 514.168 554.605, 488.660 541.817 C 476.276 535.609, 471.418 537.544, 472.318 548.324 C 473.040 556.970, 478.368 561.042, 496.755 566.998 C 533.046 578.753, 564.114 578.459, 599 566.029 C 673.376 539.530, 714.722 460.520, 694.991 382.598 C 684.406 340.796, 655.228 304.371, 616.840 285.037 C 604.131 278.636, 583.713 271.549, 575 270.515 C 571.975 270.156, 565.729 269.218, 561.119 268.431 C 550.331 266.589, 542.447 266.738, 527 269.077 M 524 270.943 C 511.555 273.078, 500.855 275.956, 501.497 276.996 C 502.137 278.030, 439.121 318.325, 436.571 318.513 C 435.432 318.597, 434.480 319.303, 434.455 320.083 C 434.430 320.862, 433.910 321.402, 433.299 321.282 C 432.120 321.049, 426.311 327.663, 421.754 334.425 C 418.239 339.642, 418.178 342.737, 421.565 344.025 C 429.350 346.985, 436.733 343.615, 444.913 333.368 C 460.587 313.731, 489.014 296.502, 517.515 289.364 C 539.969 283.740, 572.810 285.781, 593.755 294.101 C 629.770 308.408, 657.935 335.599, 672.512 370.133 C 680.274 388.524, 682.204 397.611, 682.754 418.374 C 683.015 428.205, 683.514 435.822, 683.864 435.299 C 684.214 434.777, 687.289 432.470, 690.698 430.173 L 696.895 425.997 697.317 431.248 C 697.549 434.137, 697.647 427.500, 697.534 416.500 C 697.353 398.788, 697.034 395.298, 694.744 385.994 C 684.998 346.406, 663.712 316.128, 629.918 293.785 C 600.047 274.036, 558.367 265.047, 524 270.943 M 527.021 306.134 C 508.911 309.344, 494.708 315.215, 478.248 326.295 C 463.810 336.014, 459.996 342.409, 467.149 344.902 C 474.901 347.605, 483.737 345.582, 495.732 338.359 C 520.112 323.678, 545.447 319.677, 571.429 326.405 C 605.534 335.235, 633.121 362.565, 643.192 397.500 C 646.325 408.367, 646.339 428.802, 643.223 443.365 C 635.775 478.182, 604.003 509.970, 569.640 516.987 C 554.451 520.088, 533.146 519.845, 521.362 516.436 C 510.519 513.299, 495.341 505.409, 486.478 498.302 C 476.086 489.968, 472 491.144, 472 502.466 C 472 513.016, 474.468 516.004, 490.131 524.417 C 506.191 533.043, 531.858 540.034, 547.257 539.977 C 554.567 539.949, 574.688 536.142, 584 533.025 C 651.803 510.324, 683.588 432.876, 651.404 368.789 C 628.001 322.187, 578.143 297.072, 527.021 306.134 M 530 306.675 C 511.376 309.759, 494.287 316.584, 479.039 327.028 C 465.057 336.604, 461.602 342.243, 468.500 344.229 C 475.761 346.319, 485.803 343.462, 497.775 335.900 C 506.278 330.530, 511.197 328.503, 523.353 325.356 C 574.985 311.994, 626.698 342.160, 643.651 395.531 C 648.777 411.667, 647.347 439.329, 640.435 457.750 C 637.950 464.372, 638.115 465.104, 641.436 462.186 C 646.652 457.601, 657.183 451.678, 657.940 452.902 C 659.844 455.984, 663.487 425.798, 662.681 413.607 C 658.237 346.336, 595.557 295.820, 530 306.675 M 281.578 362.118 C 276.502 363.312, 275.251 364.429, 273.885 368.990 C 272.195 374.629, 274.163 379.714, 278.859 381.847 C 282.154 383.343, 289.353 383.478, 354.500 383.265 C 433.699 383.007, 431.865 382.877, 435.451 389 C 437.484 392.473, 437.500 393.380, 437.500 507.676 L 437.500 622.852 439.596 625.676 C 443.746 631.268, 452.890 630.878, 455.650 624.991 C 457.103 621.891, 457.348 595.264, 457.109 466.798 C 456.924 367.278, 456.834 365.052, 452.917 362.956 C 450.456 361.639, 287.014 360.839, 281.578 362.118 M 360.781 363.923 L 367.062 364.500 353.873 372.750 C 340.844 380.900, 340.599 381.003, 333.593 381.228 C 329.692 381.353, 349.755 381.691, 378.178 381.978 C 444.396 382.647, 438.371 379.259, 438.687 416 C 438.798 428.925, 438.997 475.950, 439.129 520.500 C 439.262 565.050, 439.535 599.144, 439.737 596.265 L 440.103 591.030 447.083 586.515 C 450.922 584.032, 454.249 582, 454.476 582 C 454.704 582, 455.064 584.138, 455.276 586.750 C 455.488 589.362, 455.716 541.893, 455.783 481.262 C 455.908 367.946, 455.846 366.058, 451.961 363.979 C 450.827 363.372, 431.941 363.066, 402.316 363.173 C 376.017 363.268, 357.326 363.605, 360.781 363.923 M 281 398.109 C 274.616 400.063, 272.109 405.188, 274.067 412.280 C 276.078 419.562, 274.439 419.376, 337.174 419.442 C 392.033 419.499, 392.890 419.531, 395.674 421.590 C 401.817 426.133, 401.494 420.378, 401.568 526.500 C 401.605 579.850, 401.969 624.503, 402.378 625.728 C 404.140 631.014, 414.464 630.940, 418.439 625.612 C 420.488 622.866, 420.498 622.362, 420.225 535.675 C 420.074 487.729, 419.961 438.288, 419.975 425.806 C 419.999 403.662, 419.945 403.051, 417.750 400.609 L 415.500 398.107 350 397.572 C 304.827 397.204, 283.414 397.371, 281 398.109 M 304.685 399.923 L 310.870 400.500 298.409 408.350 C 291.555 412.668, 284.947 416.493, 283.724 416.850 C 282.501 417.208, 306.475 417.725, 337 418 C 398.330 418.553, 396.558 418.357, 400.450 425 C 402.479 428.464, 402.500 429.505, 402.500 526 C 402.500 579.625, 402.638 621.587, 402.808 619.248 C 403.093 615.296, 403.533 614.713, 409.038 610.974 C 417.871 604.976, 417.961 604.973, 418.233 610.643 C 418.749 621.402, 419.465 449.747, 419 426.668 C 418.535 403.558, 418.365 401.737, 416.559 400.418 C 414.930 399.228, 405.284 399.028, 356.559 399.173 C 324.626 399.268, 301.283 399.605, 304.685 399.923 M 282.730 433.963 C 276.042 434.851, 273.615 437.525, 273.615 444.005 C 273.615 448.180, 274.092 449.547, 276.329 451.785 L 279.043 454.500 318.318 455 C 362.657 455.564, 361.965 455.443, 364.006 463.023 C 364.748 465.779, 365.045 491.687, 364.945 545.048 C 364.783 631.490, 364.446 627.017, 371.255 628.791 C 381.369 631.426, 384.497 627.029, 384.499 610.178 C 384.499 603.205, 384.387 561.863, 384.250 518.306 L 384 439.112 381.592 436.312 L 379.184 433.513 333.342 433.421 C 308.129 433.370, 285.353 433.614, 282.730 433.963 M 294.659 434.902 C 276.434 435.590, 275 436.284, 275 444.420 C 275 453.610, 276.411 453.911, 319.578 453.950 C 357.863 453.985, 358.735 454.070, 362.667 458.173 L 365.500 461.130 366 542.654 L 366.500 624.178 368.861 626.089 C 371.885 628.537, 377.116 628.537, 380.139 626.089 L 382.500 624.177 382.790 533.839 C 382.949 484.152, 382.817 442.043, 382.497 440.262 C 382.163 438.407, 381.009 436.540, 379.794 435.890 C 377.362 434.588, 320.484 433.928, 294.659 434.902 M 280.501 471.066 C 276.379 472.295, 275 474.564, 275 480.119 C 275 488.332, 276.718 488.999, 297.885 489.006 C 320.935 489.013, 327 490.880, 327 497.966 C 327 503.950, 320.207 508.218, 302.500 513.360 C 264.660 524.349, 223.243 521.802, 197.479 506.901 C 192.212 503.855, 179.115 493.900, 176.122 490.667 L 173.744 488.099 167.831 492.115 C 164.579 494.323, 161.070 496.194, 160.034 496.272 C 157.396 496.471, 158.606 498.368, 165.655 505.082 C 199.118 536.955, 251.191 546.759, 306 531.505 C 319.431 527.767, 321.605 527.511, 324.394 529.339 C 329.484 532.674, 326.799 540.021, 319.045 543.977 C 298.797 554.307, 249.479 559.354, 221.516 553.957 C 195.240 548.886, 166.975 533.264, 148.934 513.838 L 143.367 507.845 136.542 512.173 C 132.788 514.553, 129.279 516.370, 128.744 516.212 C 127.165 515.744, 133.964 523.891, 141.500 531.495 C 159.595 549.754, 187.218 563.880, 220.150 571.716 C 230.782 574.246, 232.891 574.411, 253.500 574.325 C 277.057 574.228, 283.583 573.445, 306.808 567.927 C 321.311 564.481, 322.081 564.436, 325.056 566.844 C 328.619 569.730, 328.136 574.571, 323.896 578.457 C 312.585 588.823, 250.478 595.766, 220.229 590.047 C 205.232 587.212, 184.592 580.766, 173.500 575.453 C 154.531 566.368, 129.347 546.842, 116.551 531.298 C 114.048 528.258, 112 526.261, 112 526.861 C 112 529.070, 99.683 535.976, 98.047 534.685 C 97.223 534.033, 100.379 538.225, 105.061 544 C 127.230 571.343, 162.506 593.833, 198.263 603.421 C 219.369 609.081, 230.848 610.511, 254 610.362 C 276.207 610.220, 277.306 610.101, 305.175 604.827 C 323.599 601.341, 326.119 601.643, 327.594 607.520 C 329.177 613.827, 323.181 617.746, 305.688 621.838 C 230.250 639.481, 155.619 620.299, 105 570.256 C 97.575 562.916, 89.739 554.680, 87.586 551.955 C 85.434 549.230, 83.376 547, 83.013 547 C 82.651 547, 79.141 549.055, 75.215 551.567 L 68.076 556.135 72.974 562.817 C 79.459 571.667, 99.115 590.950, 111.152 600.272 C 139.583 622.291, 174.851 637.150, 214.901 643.983 C 228.561 646.314, 267.407 646.854, 281.500 644.909 C 316.251 640.114, 343.523 632.167, 345.878 626.149 C 346.541 624.454, 347.100 597.584, 347.431 551.500 C 347.985 474.248, 347.960 473.793, 343 471.291 C 340.034 469.794, 285.425 469.598, 280.501 471.066 M 474.035 495.934 C 472.344 499.094, 472.814 507.715, 474.900 511.804 C 476.963 515.847, 484.497 520.692, 499.411 527.564 C 508.497 531.751, 526.914 536.730, 527.872 535.258 C 529.701 532.450, 546.881 522.557, 551 521.941 C 554.250 521.454, 552.419 521.230, 544.410 521.134 C 523.678 520.884, 503.792 513.357, 485.878 498.980 C 479.292 493.694, 475.725 492.777, 474.035 495.934 M 474.944 540.567 C 472.800 543.151, 473.182 551.420, 475.595 554.675 C 477.659 557.459, 488.736 563.598, 489.791 562.542 C 490.089 562.244, 489.808 562, 489.167 562 C 486.514 562, 488.376 559.942, 494.564 556.034 C 498.174 553.754, 502.054 551.546, 503.186 551.127 C 504.939 550.478, 504.521 550.093, 500.372 548.535 C 497.693 547.528, 492.022 544.971, 487.772 542.852 C 479.302 538.630, 476.906 538.203, 474.944 540.567" stroke="none" fill="url(#gd-blue-wm)" fill-rule="evenodd"/>
<text x="950" y="420" font-family="Inter, system-ui, -apple-system, 'Segoe UI', sans-serif" font-size="280" font-weight="500" fill="#1A2433" dominant-baseline="central" letter-spacing="-0.02em">Glanz<tspan font-weight="700" fill="#0052CC">Design</tspan></text>
</svg>
